<svg xmlns="http://www.w3.org/2000/svg" width="244" height="232.7" viewBox="0 0 244 232.7"><style type="text/css">.st0{fill:#673200;} .st1{fill:#FFAACA;} .st2{fill:#C65B00;} .st3{fill:none;stroke:#000000;stroke-width:3;stroke-linecap:round;stroke-linejoin:round;stroke-miterlimit:10;}</style><g id="left-ear"><circle class="st0" cx="37.9" cy="37.6" r="34.6"/><circle class="st1" cx="40.4" cy="46.3" r="14.8"/></g><g id="right-ear"><circle class="st0" cx="206.1" cy="37.6" r="34.6"/><circle class="st1" cx="203.6" cy="46.3" r="14.8"/></g><g id="face"><circle class="st0" cx="122" cy="121.6" r="108.1"/><circle class="st2" cx="122" cy="161.1" r="42.3"/><path class="st2" d="M168 23.7c-14.5 12-23.7 30.2-23.7 50.5 0 36.2 29.4 65.6 65.6 65.6 6.7 0 13.1-1 19.2-2.8.7-5 1.1-10.2 1.1-15.4-.1-43.3-25.5-80.6-62.2-97.9zm-154.1 97.9c0 5.2.4 10.4 1.1 15.4 6.1 1.8 12.5 2.8 19.2 2.8 36.2 0 65.6-29.4 65.6-65.6 0-20.3-9.2-38.5-23.7-50.5-36.8 17.3-62.2 54.6-62.2 97.9z"/><path class="st3" d="M95.2 175.4c14.6 14.6 38.1 14.6 52.7 0"/></g><circle id="nose" class="st1" cx="122" cy="126.4" r="13"/><circle id="left-eye" cx="78.8" cy="94.8" r="9.3"/><circle id="right-eye" cx="165.2" cy="94.8" r="9.3"/></svg>